# xmcd
#
# Track frame offsets:
#	150
#	12826
#	24998
#	38870
#	51014
#	67065
#	80923
#	95381
#	107938
#	120410
#	132861
#	152363
#	164193
#	178798
#	196607
#	217267
#	232225
#	245050
#	257726
#	271242
#	281552
#	293157
#
# Disc length: 4074 seconds
#
# Revision: 1
# Processed by: cddbd v1.5.2PL0 Copyright (c) Steve Scherf et al.
# Submitted via: audiograbber 1.83.01
#
DISCID=470fe816
DTITLE=Various Artist - Solo Ellas Con Trío CD 3
DYEAR=1995
DGENRE=Variado
TTITLE0=Sabor a Mí [Tema Remasterizado]
TTITLE1=Cariñito Azucarado
TTITLE2=Limeña
TTITLE3=Cheque en Blanco
TTITLE4=Tres Regalos
TTITLE5=Cuando Ya No Me Quieras
TTITLE6=Escandalo/Luz Y Sombra
TTITLE7=La Mentira
TTITLE8=El Reloj
TTITLE9=Nosotros [Tema Remasterizado]
TTITLE10=Piensa En Mí
TTITLE11=La Consentida
TTITLE12=Un Siglo De Ausencia
TTITLE13=Volverás
TTITLE14=Por Qué Fue Que Te Amé?
TTITLE15=Reconciliación
TTITLE16=Perdón
TTITLE17=Y... (Remasterizado)
TTITLE18=Ya la Pagarás
TTITLE19=Soberbia
TTITLE20=María Elena
TTITLE21=Nuetro Amor
EXTD=
EXTT0=
EXTT1=
EXTT2=
EXTT3=
EXTT4=
EXTT5=
EXTT6=
EXTT7=
EXTT8=
EXTT9=
EXTT10=
EXTT11=
EXTT12=
EXTT13=
EXTT14=
EXTT15=
EXTT16=
EXTT17=
EXTT18=
EXTT19=
EXTT20=
EXTT21=
PLAYORDER=
